<mxfile host="app.diagrams.net" modified="2022-11-01T17:55:41.768Z" agent="5.0 (X11; Linux x86_64) AppleWebKit/537.36 (KHTML, like Gecko) Chrome/107.0.0.0 Safari/537.36" etag="lCYl0uraPKf2QuJcVosI" version="20.5.1" type="github">
  <diagram id="C5RBs43oDa-KdzZeNtuy" name="Page-1">
    <mxGraphModel dx="354" dy="202" grid="1" gridSize="10" guides="1" tooltips="1" connect="1" arrows="1" fold="1" page="1" pageScale="1" pageWidth="827" pageHeight="1169" math="0" shadow="0">
      <root>
        <mxCell id="WIyWlLk6GJQsqaUBKTNV-0" />
        <mxCell id="WIyWlLk6GJQsqaUBKTNV-1" parent="WIyWlLk6GJQsqaUBKTNV-0" />
        <mxCell id="UWpg7ca5vRlGJdTYK1Bn-41" style="edgeStyle=orthogonalEdgeStyle;rounded=0;orthogonalLoop=1;jettySize=auto;html=1;exitX=1;exitY=0.25;exitDx=0;exitDy=0;entryX=0;entryY=0.5;entryDx=0;entryDy=0;" parent="WIyWlLk6GJQsqaUBKTNV-1" source="UWpg7ca5vRlGJdTYK1Bn-0" target="UWpg7ca5vRlGJdTYK1Bn-52" edge="1">
          <mxGeometry relative="1" as="geometry">
            <mxPoint x="730" y="452" as="targetPoint" />
          </mxGeometry>
        </mxCell>
        <mxCell id="UWpg7ca5vRlGJdTYK1Bn-0" value="&lt;&lt;interface&gt;&gt;&#xa;Produto" style="swimlane;fontStyle=1;align=center;verticalAlign=top;childLayout=stackLayout;horizontal=1;startSize=40;horizontalStack=0;resizeParent=1;resizeParentMax=0;resizeLast=0;collapsible=1;marginBottom=0;" parent="WIyWlLk6GJQsqaUBKTNV-1" vertex="1">
          <mxGeometry x="480" y="263" width="178" height="150" as="geometry" />
        </mxCell>
        <mxCell id="UWpg7ca5vRlGJdTYK1Bn-2" value="" style="line;strokeWidth=1;fillColor=none;align=left;verticalAlign=middle;spacingTop=-1;spacingLeft=3;spacingRight=3;rotatable=0;labelPosition=right;points=[];portConstraint=eastwest;strokeColor=inherit;" parent="UWpg7ca5vRlGJdTYK1Bn-0" vertex="1">
          <mxGeometry y="40" width="178" height="8" as="geometry" />
        </mxCell>
        <mxCell id="UWpg7ca5vRlGJdTYK1Bn-3" value="+ getNome(): String&#xa;+ getPreco(): Double&#xa;+ getCodBarras(): String&#xa;+ getPeso(): int&#xa;+ getMedidas(): List&lt;double&gt;&#xa;+ imprimirDetalhes(): void&#xa;" style="text;strokeColor=none;fillColor=none;align=left;verticalAlign=top;spacingLeft=4;spacingRight=4;overflow=hidden;rotatable=0;points=[[0,0.5],[1,0.5]];portConstraint=eastwest;" parent="UWpg7ca5vRlGJdTYK1Bn-0" vertex="1">
          <mxGeometry y="48" width="178" height="102" as="geometry" />
        </mxCell>
        <mxCell id="UWpg7ca5vRlGJdTYK1Bn-21" style="edgeStyle=orthogonalEdgeStyle;rounded=0;orthogonalLoop=1;jettySize=auto;html=1;exitX=1;exitY=0.5;exitDx=0;exitDy=0;entryX=0;entryY=0.25;entryDx=0;entryDy=0;" parent="WIyWlLk6GJQsqaUBKTNV-1" target="UWpg7ca5vRlGJdTYK1Bn-0" edge="1">
          <mxGeometry relative="1" as="geometry">
            <mxPoint x="330" y="143.0000000000001" as="sourcePoint" />
          </mxGeometry>
        </mxCell>
        <mxCell id="UWpg7ca5vRlGJdTYK1Bn-23" style="edgeStyle=orthogonalEdgeStyle;rounded=0;orthogonalLoop=1;jettySize=auto;html=1;exitX=1;exitY=0.5;exitDx=0;exitDy=0;entryX=0;entryY=0.25;entryDx=0;entryDy=0;" parent="WIyWlLk6GJQsqaUBKTNV-1" target="UWpg7ca5vRlGJdTYK1Bn-0" edge="1">
          <mxGeometry relative="1" as="geometry">
            <mxPoint x="330" y="293" as="sourcePoint" />
            <mxPoint x="440" y="220" as="targetPoint" />
          </mxGeometry>
        </mxCell>
        <mxCell id="UWpg7ca5vRlGJdTYK1Bn-28" style="edgeStyle=orthogonalEdgeStyle;rounded=0;orthogonalLoop=1;jettySize=auto;html=1;exitX=1;exitY=0.25;exitDx=0;exitDy=0;entryX=0;entryY=0.25;entryDx=0;entryDy=0;" parent="WIyWlLk6GJQsqaUBKTNV-1" source="UWpg7ca5vRlGJdTYK1Bn-24" target="UWpg7ca5vRlGJdTYK1Bn-0" edge="1">
          <mxGeometry relative="1" as="geometry" />
        </mxCell>
        <mxCell id="UWpg7ca5vRlGJdTYK1Bn-24" value="Decoracao" style="swimlane;fontStyle=1;align=center;verticalAlign=top;childLayout=stackLayout;horizontal=1;startSize=30;horizontalStack=0;resizeParent=1;resizeParentMax=0;resizeLast=0;collapsible=1;marginBottom=0;" parent="WIyWlLk6GJQsqaUBKTNV-1" vertex="1">
          <mxGeometry x="170" y="368" width="160" height="90" as="geometry" />
        </mxCell>
        <mxCell id="UWpg7ca5vRlGJdTYK1Bn-25" value="+ cor: String" style="text;strokeColor=none;fillColor=none;align=left;verticalAlign=top;spacingLeft=4;spacingRight=4;overflow=hidden;rotatable=0;points=[[0,0.5],[1,0.5]];portConstraint=eastwest;" parent="UWpg7ca5vRlGJdTYK1Bn-24" vertex="1">
          <mxGeometry y="30" width="160" height="26" as="geometry" />
        </mxCell>
        <mxCell id="UWpg7ca5vRlGJdTYK1Bn-26" value="" style="line;strokeWidth=1;fillColor=none;align=left;verticalAlign=middle;spacingTop=-1;spacingLeft=3;spacingRight=3;rotatable=0;labelPosition=right;points=[];portConstraint=eastwest;strokeColor=inherit;" parent="UWpg7ca5vRlGJdTYK1Bn-24" vertex="1">
          <mxGeometry y="56" width="160" height="8" as="geometry" />
        </mxCell>
        <mxCell id="UWpg7ca5vRlGJdTYK1Bn-27" value="getCor(): String" style="text;strokeColor=none;fillColor=none;align=left;verticalAlign=top;spacingLeft=4;spacingRight=4;overflow=hidden;rotatable=0;points=[[0,0.5],[1,0.5]];portConstraint=eastwest;" parent="UWpg7ca5vRlGJdTYK1Bn-24" vertex="1">
          <mxGeometry y="64" width="160" height="26" as="geometry" />
        </mxCell>
        <mxCell id="UWpg7ca5vRlGJdTYK1Bn-37" value="Cliente" style="swimlane;fontStyle=1;align=center;verticalAlign=top;childLayout=stackLayout;horizontal=1;startSize=26;horizontalStack=0;resizeParent=1;resizeParentMax=0;resizeLast=0;collapsible=1;marginBottom=0;" parent="WIyWlLk6GJQsqaUBKTNV-1" vertex="1">
          <mxGeometry x="880" y="60" width="220" height="104" as="geometry" />
        </mxCell>
        <mxCell id="UWpg7ca5vRlGJdTYK1Bn-39" value="+ comprasEfetuadas: List&lt;Compra&gt;&#xa;+ dataCadastro: Date" style="text;strokeColor=none;fillColor=none;align=left;verticalAlign=top;spacingLeft=4;spacingRight=4;overflow=hidden;rotatable=0;points=[[0,0.5],[1,0.5]];portConstraint=eastwest;" parent="UWpg7ca5vRlGJdTYK1Bn-37" vertex="1">
          <mxGeometry y="26" width="220" height="44" as="geometry" />
        </mxCell>
        <mxCell id="UWpg7ca5vRlGJdTYK1Bn-38" value="" style="line;strokeWidth=1;fillColor=none;align=left;verticalAlign=middle;spacingTop=-1;spacingLeft=3;spacingRight=3;rotatable=0;labelPosition=right;points=[];portConstraint=eastwest;strokeColor=inherit;" parent="UWpg7ca5vRlGJdTYK1Bn-37" vertex="1">
          <mxGeometry y="70" width="220" height="8" as="geometry" />
        </mxCell>
        <mxCell id="UWpg7ca5vRlGJdTYK1Bn-40" value="+ getInformacoesCliente(): void" style="text;strokeColor=none;fillColor=none;align=left;verticalAlign=top;spacingLeft=4;spacingRight=4;overflow=hidden;rotatable=0;points=[[0,0.5],[1,0.5]];portConstraint=eastwest;" parent="UWpg7ca5vRlGJdTYK1Bn-37" vertex="1">
          <mxGeometry y="78" width="220" height="26" as="geometry" />
        </mxCell>
        <mxCell id="UWpg7ca5vRlGJdTYK1Bn-42" style="edgeStyle=orthogonalEdgeStyle;rounded=0;orthogonalLoop=1;jettySize=auto;html=1;exitX=0;exitY=0.5;exitDx=0;exitDy=0;entryX=0.5;entryY=0;entryDx=0;entryDy=0;" parent="WIyWlLk6GJQsqaUBKTNV-1" source="UWpg7ca5vRlGJdTYK1Bn-39" target="UWpg7ca5vRlGJdTYK1Bn-51" edge="1">
          <mxGeometry relative="1" as="geometry">
            <mxPoint x="810.0434782608697" y="392" as="targetPoint" />
            <Array as="points">
              <mxPoint x="810" y="166" />
              <mxPoint x="810" y="392" />
            </Array>
          </mxGeometry>
        </mxCell>
        <mxCell id="UWpg7ca5vRlGJdTYK1Bn-51" value="Compra" style="swimlane;fontStyle=1;align=center;verticalAlign=top;childLayout=stackLayout;horizontal=1;startSize=26;horizontalStack=0;resizeParent=1;resizeParentMax=0;resizeLast=0;collapsible=1;marginBottom=0;" parent="WIyWlLk6GJQsqaUBKTNV-1" vertex="1">
          <mxGeometry x="730" y="394" width="160" height="108" as="geometry" />
        </mxCell>
        <mxCell id="UWpg7ca5vRlGJdTYK1Bn-52" value="+ comprador: Cliente&#xa;+ produto: Produto&#xa;+ atendente: Vendedor&#xa;+ dataVenda: Date&#xa;&#xa;&#xa;&#xa;&#xa;" style="text;strokeColor=none;fillColor=none;align=left;verticalAlign=top;spacingLeft=4;spacingRight=4;overflow=hidden;rotatable=0;points=[[0,0.5],[1,0.5]];portConstraint=eastwest;" parent="UWpg7ca5vRlGJdTYK1Bn-51" vertex="1">
          <mxGeometry y="26" width="160" height="74" as="geometry" />
        </mxCell>
        <mxCell id="UWpg7ca5vRlGJdTYK1Bn-53" value="" style="line;strokeWidth=1;fillColor=none;align=left;verticalAlign=middle;spacingTop=-1;spacingLeft=3;spacingRight=3;rotatable=0;labelPosition=right;points=[];portConstraint=eastwest;strokeColor=inherit;" parent="UWpg7ca5vRlGJdTYK1Bn-51" vertex="1">
          <mxGeometry y="100" width="160" height="8" as="geometry" />
        </mxCell>
        <mxCell id="UWpg7ca5vRlGJdTYK1Bn-58" value="Eletrodomestico&#xa;&#xa;&#xa;" style="swimlane;fontStyle=1;align=center;verticalAlign=top;childLayout=stackLayout;horizontal=1;startSize=26;horizontalStack=0;resizeParent=1;resizeParentMax=0;resizeLast=0;collapsible=1;marginBottom=0;" parent="WIyWlLk6GJQsqaUBKTNV-1" vertex="1">
          <mxGeometry x="170" y="90" width="160" height="120" as="geometry" />
        </mxCell>
        <mxCell id="UWpg7ca5vRlGJdTYK1Bn-59" value="+ watts: int&#xa;+ mesesGarantia:int&#xa;" style="text;strokeColor=none;fillColor=none;align=left;verticalAlign=top;spacingLeft=4;spacingRight=4;overflow=hidden;rotatable=0;points=[[0,0.5],[1,0.5]];portConstraint=eastwest;" parent="UWpg7ca5vRlGJdTYK1Bn-58" vertex="1">
          <mxGeometry y="26" width="160" height="44" as="geometry" />
        </mxCell>
        <mxCell id="UWpg7ca5vRlGJdTYK1Bn-60" value="" style="line;strokeWidth=1;fillColor=none;align=left;verticalAlign=middle;spacingTop=-1;spacingLeft=3;spacingRight=3;rotatable=0;labelPosition=right;points=[];portConstraint=eastwest;strokeColor=inherit;" parent="UWpg7ca5vRlGJdTYK1Bn-58" vertex="1">
          <mxGeometry y="70" width="160" height="8" as="geometry" />
        </mxCell>
        <mxCell id="UWpg7ca5vRlGJdTYK1Bn-61" value="+ getMesesGarantia: int&#xa;+ getPotencia(): int&#xa;" style="text;strokeColor=none;fillColor=none;align=left;verticalAlign=top;spacingLeft=4;spacingRight=4;overflow=hidden;rotatable=0;points=[[0,0.5],[1,0.5]];portConstraint=eastwest;" parent="UWpg7ca5vRlGJdTYK1Bn-58" vertex="1">
          <mxGeometry y="78" width="160" height="42" as="geometry" />
        </mxCell>
        <mxCell id="UWpg7ca5vRlGJdTYK1Bn-62" value="Perecivel" style="swimlane;fontStyle=1;align=center;verticalAlign=top;childLayout=stackLayout;horizontal=1;startSize=26;horizontalStack=0;resizeParent=1;resizeParentMax=0;resizeLast=0;collapsible=1;marginBottom=0;" parent="WIyWlLk6GJQsqaUBKTNV-1" vertex="1">
          <mxGeometry x="170" y="240" width="160" height="84" as="geometry" />
        </mxCell>
        <mxCell id="UWpg7ca5vRlGJdTYK1Bn-63" value="+ dataVencimento: date&#xa;" style="text;strokeColor=none;fillColor=none;align=left;verticalAlign=top;spacingLeft=4;spacingRight=4;overflow=hidden;rotatable=0;points=[[0,0.5],[1,0.5]];portConstraint=eastwest;" parent="UWpg7ca5vRlGJdTYK1Bn-62" vertex="1">
          <mxGeometry y="26" width="160" height="24" as="geometry" />
        </mxCell>
        <mxCell id="UWpg7ca5vRlGJdTYK1Bn-64" value="" style="line;strokeWidth=1;fillColor=none;align=left;verticalAlign=middle;spacingTop=-1;spacingLeft=3;spacingRight=3;rotatable=0;labelPosition=right;points=[];portConstraint=eastwest;strokeColor=inherit;" parent="UWpg7ca5vRlGJdTYK1Bn-62" vertex="1">
          <mxGeometry y="50" width="160" height="8" as="geometry" />
        </mxCell>
        <mxCell id="UWpg7ca5vRlGJdTYK1Bn-65" value="+ getVencimento: date" style="text;strokeColor=none;fillColor=none;align=left;verticalAlign=top;spacingLeft=4;spacingRight=4;overflow=hidden;rotatable=0;points=[[0,0.5],[1,0.5]];portConstraint=eastwest;" parent="UWpg7ca5vRlGJdTYK1Bn-62" vertex="1">
          <mxGeometry y="58" width="160" height="26" as="geometry" />
        </mxCell>
        <mxCell id="UWpg7ca5vRlGJdTYK1Bn-66" value="&lt;&lt;Abstract&gt;&gt;&#xa;Pessoa" style="swimlane;fontStyle=1;align=center;verticalAlign=top;childLayout=stackLayout;horizontal=1;startSize=40;horizontalStack=0;resizeParent=1;resizeParentMax=0;resizeLast=0;collapsible=1;marginBottom=0;" parent="WIyWlLk6GJQsqaUBKTNV-1" vertex="1">
          <mxGeometry x="1180" y="40" width="160" height="112" as="geometry" />
        </mxCell>
        <mxCell id="UWpg7ca5vRlGJdTYK1Bn-68" value="+ nome: String&#xa;+ cpf: Produto&#xa;+ dataNascimento: Date&#xa;&#xa;" style="text;strokeColor=none;fillColor=none;align=left;verticalAlign=top;spacingLeft=4;spacingRight=4;overflow=hidden;rotatable=0;points=[[0,0.5],[1,0.5]];portConstraint=eastwest;" parent="UWpg7ca5vRlGJdTYK1Bn-66" vertex="1">
          <mxGeometry y="40" width="160" height="64" as="geometry" />
        </mxCell>
        <mxCell id="UWpg7ca5vRlGJdTYK1Bn-67" value="" style="line;strokeWidth=1;fillColor=none;align=left;verticalAlign=middle;spacingTop=-1;spacingLeft=3;spacingRight=3;rotatable=0;labelPosition=right;points=[];portConstraint=eastwest;strokeColor=inherit;" parent="UWpg7ca5vRlGJdTYK1Bn-66" vertex="1">
          <mxGeometry y="104" width="160" height="8" as="geometry" />
        </mxCell>
        <mxCell id="UWpg7ca5vRlGJdTYK1Bn-70" value="Vendedor&#xa;" style="swimlane;fontStyle=1;align=center;verticalAlign=top;childLayout=stackLayout;horizontal=1;startSize=26;horizontalStack=0;resizeParent=1;resizeParentMax=0;resizeLast=0;collapsible=1;marginBottom=0;" parent="WIyWlLk6GJQsqaUBKTNV-1" vertex="1">
          <mxGeometry x="930" y="263" width="170" height="120" as="geometry" />
        </mxCell>
        <mxCell id="UWpg7ca5vRlGJdTYK1Bn-72" value="+ idNum: int&#xa;" style="text;strokeColor=none;fillColor=none;align=left;verticalAlign=top;spacingLeft=4;spacingRight=4;overflow=hidden;rotatable=0;points=[[0,0.5],[1,0.5]];portConstraint=eastwest;" parent="UWpg7ca5vRlGJdTYK1Bn-70" vertex="1">
          <mxGeometry y="26" width="170" height="34" as="geometry" />
        </mxCell>
        <mxCell id="UWpg7ca5vRlGJdTYK1Bn-71" value="" style="line;strokeWidth=1;fillColor=none;align=left;verticalAlign=middle;spacingTop=-1;spacingLeft=3;spacingRight=3;rotatable=0;labelPosition=right;points=[];portConstraint=eastwest;strokeColor=inherit;" parent="UWpg7ca5vRlGJdTYK1Bn-70" vertex="1">
          <mxGeometry y="60" width="170" height="8" as="geometry" />
        </mxCell>
        <mxCell id="UWpg7ca5vRlGJdTYK1Bn-73" value="+ getIdNum(): int&#xa;+ getNomeById(id int): String" style="text;strokeColor=none;fillColor=none;align=left;verticalAlign=top;spacingLeft=4;spacingRight=4;overflow=hidden;rotatable=0;points=[[0,0.5],[1,0.5]];portConstraint=eastwest;" parent="UWpg7ca5vRlGJdTYK1Bn-70" vertex="1">
          <mxGeometry y="68" width="170" height="52" as="geometry" />
        </mxCell>
        <mxCell id="UWpg7ca5vRlGJdTYK1Bn-74" style="edgeStyle=orthogonalEdgeStyle;rounded=0;orthogonalLoop=1;jettySize=auto;html=1;exitX=0;exitY=0.5;exitDx=0;exitDy=0;entryX=1;entryY=0.5;entryDx=0;entryDy=0;" parent="WIyWlLk6GJQsqaUBKTNV-1" source="UWpg7ca5vRlGJdTYK1Bn-68" target="UWpg7ca5vRlGJdTYK1Bn-37" edge="1">
          <mxGeometry relative="1" as="geometry" />
        </mxCell>
        <mxCell id="UWpg7ca5vRlGJdTYK1Bn-75" style="edgeStyle=orthogonalEdgeStyle;rounded=0;orthogonalLoop=1;jettySize=auto;html=1;exitX=0;exitY=0.5;exitDx=0;exitDy=0;" parent="WIyWlLk6GJQsqaUBKTNV-1" source="UWpg7ca5vRlGJdTYK1Bn-68" target="UWpg7ca5vRlGJdTYK1Bn-72" edge="1">
          <mxGeometry relative="1" as="geometry" />
        </mxCell>
        <mxCell id="UWpg7ca5vRlGJdTYK1Bn-76" style="edgeStyle=orthogonalEdgeStyle;rounded=0;orthogonalLoop=1;jettySize=auto;html=1;exitX=0;exitY=0.5;exitDx=0;exitDy=0;entryX=0.5;entryY=0;entryDx=0;entryDy=0;" parent="WIyWlLk6GJQsqaUBKTNV-1" source="UWpg7ca5vRlGJdTYK1Bn-72" target="UWpg7ca5vRlGJdTYK1Bn-51" edge="1">
          <mxGeometry relative="1" as="geometry" />
        </mxCell>
      </root>
    </mxGraphModel>
  </diagram>
</mxfile>
